<?xml version="1.0" encoding="utf-8"?>
<!-- Generator: Adobe Illustrator 25.0.0, SVG Export Plug-In . SVG Version: 6.00 Build 0)  -->
<svg version="1.1" id="Layer_1" xmlns="http://www.w3.org/2000/svg" xmlns:xlink="http://www.w3.org/1999/xlink" x="0px" y="0px"
	 viewBox="0 0 53.7 53.7" style="enable-background:new 0 0 53.7 53.7;" xml:space="preserve">
<style type="text/css">
	.st0{clip-path:url(#SVGID_2_);}
	.st1{clip-path:url(#SVGID_4_);}
	.st2{fill:#FF6C6C;}
</style>
<g id="Layer_2_1_">
	<g id="Layer_1-2">
		<g>
			<defs>
				<path id="SVGID_1_" d="M37.8,0.1c4.2,0,8.3,1.6,11.3,4.6c3,3,4.7,7,4.6,11.3c0.1,4.2-1.6,8.2-4.6,11.1l-3.9,4.1
					c-0.4,0.5-1.2,0.7-1.8,0.4c-0.6-0.2-1-0.8-1.1-1.4c0-1.9-0.4-3.7-1.1-5.5c-0.2-0.6,0-1.3,0.4-1.8l1.4-1.4
					c1.4-1.4,2.2-3.3,2.3-5.3c0-2-0.7-3.9-2.1-5.3C41.9,9.4,40,8.6,38,8.6c-2,0-3.9,0.7-5.3,2.1l-7.1,7.1c-1.4,1.4-2.2,3.3-2.1,5.3
					c0,2,0.7,3.9,2.1,5.3c0.3,0.3,0.7,0.6,1.1,0.9c0.5,0.2,0.8,0.7,0.7,1.2c0.1,1.2-0.3,2.5-1.2,3.3l-2.3,2.1
					c-0.4,0.6-1.3,0.8-1.9,0.4h-0.2c-0.7-0.5-1.4-1.1-2.1-1.8c-3-3-4.6-7.1-4.6-11.3c0-4.2,1.6-8.3,4.6-11.3l7.1-7.1
					C29.6,1.8,33.6,0,37.8,0.1z M34.3,19.5c3,3,4.7,7,4.6,11.3c0,4.2-1.6,8.3-4.6,11.3l-7.1,7.1c-3,3-7,4.7-11.3,4.6
					c-4.2,0-8.3-1.6-11.3-4.6c-3-3-4.7-7-4.6-11.3c0-4.2,1.6-8.3,4.6-11.3l3.9-4.1c0.5-0.4,1.2-0.6,1.8-0.4c0.6,0.2,1.1,0.8,1.1,1.4
					c0,1.9,0.4,3.7,1.1,5.5c0.1,0.6,0,1.3-0.4,1.8l-1.4,1.4c-1.4,1.4-2.2,3.3-2.3,5.3c0,2,0.7,3.9,2.1,5.3c1.4,1.4,3.3,2.2,5.3,2.3
					c2,0,3.9-0.7,5.3-2.1l7.1-7.1c3-2.9,3-7.7,0.1-10.7c0,0,0,0-0.1-0.1c-0.3-0.3-0.7-0.6-1.1-0.9c-0.5-0.2-0.8-0.7-0.7-1.2
					c-0.1-1.2,0.3-2.3,1.1-3.2l2.5-2.1c0.5-0.6,1.4-0.7,1.9-0.2l0,0C32.7,18.1,33.6,18.8,34.3,19.5z"/>
			</defs>
			<clipPath id="SVGID_2_">
				<use xlink:href="#SVGID_1_"  style="overflow:visible;"/>
			</clipPath>
			<g class="st0">
				<g>
					<defs>
						<rect id="SVGID_3_" x="-621.8" y="-1272.5" width="5930.8" height="17623.3"/>
					</defs>
					<clipPath id="SVGID_4_">
						<use xlink:href="#SVGID_3_"  style="overflow:visible;"/>
					</clipPath>
					<g class="st1">
						<rect x="-20.5" y="-20.5" class="st2" width="94.7" height="94.7"/>
					</g>
				</g>
			</g>
		</g>
	</g>
</g>
</svg>
